<?xml version="1.0" encoding="utf-8"?>
<!-- Generator: Adobe Illustrator 19.1.0, SVG Export Plug-In . SVG Version: 6.00 Build 0)  -->
<svg version="1.1" xmlns="http://www.w3.org/2000/svg" xmlns:xlink="http://www.w3.org/1999/xlink" x="0px" y="0px"
	 viewBox="0 0 207.19 145.37" style="enable-background:new 0 0 207.19 145.37;" xml:space="preserve">
<style type="text/css">
	.st0{fill:none;stroke:#000000;stroke-width:0.25;}
	.st1{fill:none;stroke:#19619C;}
	.st2{fill:#131312;stroke:#19619C;stroke-width:0.5;}
	.st3{fill:#A2DCE0;stroke:#19619C;}
</style>
<g>
	<g>
		<path d="M47.54,97.56c0-1.02,0.1-1.83,0.31-2.45s0.52-1.1,0.93-1.43s0.93-0.5,1.56-0.5c0.46,0,0.87,0.09,1.21,0.28
			s0.63,0.45,0.86,0.8s0.4,0.78,0.53,1.28s0.19,1.18,0.19,2.03c0,1.01-0.1,1.82-0.31,2.44s-0.52,1.1-0.93,1.44s-0.93,0.51-1.56,0.51
			c-0.83,0-1.48-0.3-1.95-0.89C47.82,100.34,47.54,99.17,47.54,97.56z M48.62,97.56c0,1.41,0.17,2.35,0.5,2.82s0.74,0.7,1.22,0.7
			s0.89-0.23,1.22-0.7s0.5-1.41,0.5-2.81c0-1.41-0.17-2.35-0.5-2.82s-0.74-0.7-1.23-0.7c-0.48,0-0.87,0.21-1.16,0.62
			C48.8,95.18,48.62,96.15,48.62,97.56z"/>
	</g>
	<g>
		<g>
			<line class="st0" x1="0" y1="91.24" x2="200.89" y2="91.24"/>
			<g>
				<path d="M199.54,91.24l-1.64-2.7l0.09-0.06l4.41,1.75c1.54,0.34,3.07,0.68,4.61,1.01c-1.54,0.34-3.07,0.68-4.61,1.01l-4.41,1.75
					l-0.09-0.05L199.54,91.24z"/>
			</g>
		</g>
	</g>
	<g>
	</g>
	<g>
		<g>
			<line class="st0" x1="54.58" y1="145.37" x2="54.58" y2="9.02"/>
			<g>
				<path d="M54.58,10.37l-2.7,1.64l-0.06-0.09l1.75-4.41c0.34-1.54,0.68-3.07,1.01-4.61c0.34,1.54,0.68,3.07,1.01,4.61l1.75,4.41
					l-0.05,0.09L54.58,10.37z"/>
			</g>
		</g>
	</g>
	<line class="st1" x1="102.27" y1="70.89" x2="123.08" y2="50.08"/>
	<line class="st2" x1="88.37" y1="84.79" x2="102.27" y2="70.89"/>
	<line class="st1" x1="38.58" y1="134.58" x2="88.37" y2="84.79"/>
	<g>
	</g>
	<line class="st1" x1="74.92" y1="61.9" x2="101.58" y2="35.25"/>
	<line class="st2" x1="61.07" y1="75.76" x2="74.92" y2="61.9"/>
	<line class="st1" x1="28.25" y1="108.57" x2="61.07" y2="75.76"/>
	<line class="st1" x1="88.35" y1="84.78" x2="135.61" y2="100.49"/>
	<line class="st2" x1="60.99" y1="75.69" x2="88.35" y2="84.78"/>
	<line class="st1" x1="24.56" y1="63.58" x2="60.99" y2="75.69"/>
	<line class="st1" x1="102.31" y1="70.92" x2="135.56" y2="81.97"/>
	<line class="st2" x1="74.79" y1="61.77" x2="102.31" y2="70.92"/>
	<line class="st1" x1="24.89" y1="45.18" x2="74.79" y2="61.77"/>
	<polygon class="st3" points="88.38,84.75 102.29,70.85 102.33,70.88 74.81,61.73 74.94,61.86 61.08,75.72 61.01,75.65 88.37,84.74 
			"/>
	<g>
	</g>
	<g>
		<path d="M112.82,51.78l0.06-1c0.22,0.06,0.43,0.09,0.64,0.09c0.21,0,0.39-0.05,0.52-0.15c0.17-0.13,0.36-0.37,0.56-0.73l0.34-0.61
			l-1.04-6.24h1.04l0.47,3.15c0.09,0.62,0.17,1.24,0.24,1.86l2.78-5.01h1.11l-3.97,7.05c-0.38,0.69-0.72,1.14-1.02,1.37
			s-0.64,0.33-1.03,0.33C113.3,51.9,113.06,51.86,112.82,51.78z"/>
		<path d="M128.91,44.33h-5.67v-0.98h5.67V44.33z M128.91,46.93h-5.67v-0.98h5.67V46.93z"/>
		<path d="M132.48,49.38l2.71-3.16l-1.55-3.06h1.17l0.53,1.11c0.2,0.41,0.37,0.81,0.53,1.19l1.79-2.3h1.29l-2.61,3.15l1.57,3.08
			h-1.17l-0.62-1.27c-0.13-0.27-0.28-0.6-0.45-1l-1.85,2.27H132.48z"/>
		<path d="M145.25,47.99v-2.36h-2.34v-0.98h2.34v-2.34h1v2.34h2.34v0.98h-2.34v2.36H145.25z"/>
		<path d="M156.64,49.38h-1.05v-6.72c-0.25,0.24-0.59,0.48-1,0.73s-0.78,0.42-1.11,0.54v-1.02c0.59-0.28,1.11-0.61,1.55-1.01
			s0.75-0.78,0.94-1.15h0.68V49.38z"/>
	</g>
	<g>
		<path d="M113.48,111.2l0.06-1c0.22,0.06,0.43,0.09,0.64,0.09c0.21,0,0.39-0.05,0.52-0.15c0.17-0.13,0.36-0.37,0.56-0.73l0.34-0.61
			l-1.04-6.24h1.04l0.47,3.15c0.09,0.62,0.17,1.24,0.24,1.86l2.78-5.01h1.11l-3.97,7.05c-0.38,0.69-0.72,1.14-1.02,1.37
			s-0.64,0.33-1.03,0.33C113.96,111.32,113.72,111.28,113.48,111.2z"/>
		<path d="M129.57,103.74h-5.67v-0.98h5.67V103.74z M129.57,106.35h-5.67v-0.98h5.67V106.35z"/>
		<path d="M133.14,108.79l2.71-3.16l-1.55-3.06h1.17l0.53,1.11c0.2,0.41,0.37,0.81,0.53,1.19l1.79-2.3h1.29l-2.61,3.15l1.57,3.08
			h-1.17l-0.62-1.27c-0.13-0.27-0.28-0.6-0.45-1l-1.85,2.27H133.14z"/>
		<path d="M141.88,108.94l4.62-8.88h0.92l-4.62,8.88H141.88z"/>
		<path d="M149.66,106.53l1.05-0.14c0.12,0.6,0.33,1.03,0.62,1.29s0.65,0.4,1.06,0.4c0.5,0,0.92-0.17,1.26-0.52s0.51-0.77,0.51-1.28
			c0-0.48-0.16-0.88-0.47-1.2s-0.72-0.47-1.21-0.47c-0.2,0-0.45,0.04-0.74,0.12l0.12-0.93c0.07,0.01,0.13,0.01,0.17,0.01
			c0.45,0,0.85-0.12,1.21-0.35s0.54-0.6,0.54-1.08c0-0.39-0.13-0.71-0.39-0.96s-0.6-0.38-1.01-0.38c-0.41,0-0.75,0.13-1.03,0.39
			s-0.45,0.64-0.53,1.16l-1.05-0.19c0.13-0.71,0.42-1.25,0.88-1.64s1.03-0.58,1.71-0.58c0.47,0,0.9,0.1,1.29,0.3s0.7,0.48,0.91,0.82
			s0.31,0.72,0.31,1.11c0,0.37-0.1,0.71-0.3,1.01s-0.49,0.55-0.88,0.73c0.51,0.12,0.9,0.36,1.18,0.73s0.42,0.83,0.42,1.39
			c0,0.75-0.27,1.39-0.82,1.91s-1.24,0.78-2.07,0.78c-0.75,0-1.38-0.22-1.88-0.67S149.73,107.24,149.66,106.53z"/>
		<path d="M162.58,107.41v-2.36h-2.34v-0.98h2.34v-2.34h1v2.34h2.34v0.98h-2.34v2.36H162.58z"/>
		<path d="M175.55,107.78v1.01h-5.68c-0.01-0.25,0.03-0.5,0.12-0.73c0.14-0.39,0.38-0.77,0.69-1.14s0.78-0.81,1.38-1.3
			c0.93-0.77,1.56-1.37,1.89-1.82s0.49-0.87,0.49-1.27c0-0.42-0.15-0.77-0.45-1.06s-0.69-0.43-1.17-0.43
			c-0.51,0-0.91,0.15-1.22,0.46s-0.46,0.73-0.46,1.27l-1.08-0.11c0.07-0.81,0.35-1.42,0.84-1.85s1.13-0.64,1.95-0.64
			c0.82,0,1.48,0.23,1.96,0.69s0.72,1.02,0.72,1.7c0,0.34-0.07,0.68-0.21,1.01s-0.37,0.68-0.7,1.05s-0.87,0.87-1.63,1.51
			c-0.63,0.53-1.04,0.89-1.22,1.08s-0.33,0.38-0.45,0.57H175.55z"/>
	</g>
	<g>
		<path d="M84.49,35.78l0.06-1c0.22,0.06,0.43,0.09,0.64,0.09c0.21,0,0.39-0.05,0.52-0.15c0.17-0.13,0.36-0.37,0.56-0.73l0.34-0.61
			l-1.04-6.24h1.04l0.47,3.15c0.09,0.62,0.17,1.24,0.24,1.86l2.78-5.01h1.11l-3.97,7.05c-0.38,0.69-0.72,1.14-1.02,1.37
			s-0.64,0.33-1.03,0.33C84.96,35.9,84.72,35.86,84.49,35.78z"/>
		<path d="M100.57,28.33H94.9v-0.98h5.67V28.33z M100.57,30.93H94.9v-0.98h5.67V30.93z"/>
		<path d="M104.15,33.38l2.71-3.16l-1.55-3.06h1.17l0.53,1.11c0.2,0.41,0.37,0.81,0.53,1.19l1.79-2.3h1.29L108,30.3l1.57,3.08h-1.17
			l-0.62-1.27c-0.13-0.27-0.28-0.6-0.45-1l-1.85,2.27H104.15z"/>
		<path d="M116.91,31.99v-2.36h-2.34v-0.98h2.34v-2.34h1v2.34h2.34v0.98h-2.34v2.36H116.91z"/>
		<path d="M124.34,31.11l1.05-0.14c0.12,0.6,0.33,1.03,0.62,1.29s0.65,0.4,1.06,0.4c0.5,0,0.92-0.17,1.26-0.52s0.51-0.77,0.51-1.28
			c0-0.48-0.16-0.88-0.47-1.2s-0.72-0.47-1.21-0.47c-0.2,0-0.45,0.04-0.74,0.12l0.12-0.93c0.07,0.01,0.13,0.01,0.17,0.01
			c0.45,0,0.85-0.12,1.21-0.35s0.54-0.6,0.54-1.08c0-0.39-0.13-0.71-0.39-0.96s-0.6-0.38-1.01-0.38c-0.41,0-0.75,0.13-1.03,0.39
			s-0.45,0.64-0.53,1.16l-1.05-0.19c0.13-0.71,0.42-1.25,0.88-1.64s1.03-0.58,1.71-0.58c0.47,0,0.9,0.1,1.29,0.3s0.7,0.48,0.91,0.82
			s0.31,0.72,0.31,1.11c0,0.37-0.1,0.71-0.3,1.01s-0.49,0.55-0.88,0.73c0.51,0.12,0.9,0.36,1.18,0.73s0.42,0.83,0.42,1.39
			c0,0.75-0.27,1.39-0.82,1.91s-1.24,0.78-2.07,0.78c-0.75,0-1.38-0.22-1.88-0.67S124.41,31.83,124.34,31.11z"/>
	</g>
	<g>
		<path d="M78.4,77.38l1.8-8.59h3.6c0.71,0,1.25,0.06,1.62,0.18s0.66,0.34,0.86,0.67s0.31,0.74,0.31,1.24c0,0.7-0.23,1.28-0.69,1.74
			s-1.2,0.76-2.21,0.9c0.31,0.23,0.55,0.46,0.71,0.68c0.36,0.5,0.65,1.03,0.87,1.56l0.66,1.62h-1.28l-0.62-1.6
			c-0.22-0.58-0.48-1.08-0.76-1.5c-0.2-0.29-0.39-0.49-0.6-0.58s-0.53-0.14-0.99-0.14h-1.34l-0.8,3.81H78.4z M80.53,72.63h1.59
			c0.73,0,1.21-0.01,1.44-0.03c0.43-0.04,0.79-0.14,1.07-0.29s0.49-0.36,0.64-0.62s0.23-0.54,0.23-0.83c0-0.25-0.06-0.47-0.17-0.65
			s-0.26-0.31-0.45-0.38s-0.5-0.1-0.94-0.1h-2.8L80.53,72.63z"/>
	</g>
	<g>
		<path d="M44.23,12.7l0.06-1c0.22,0.06,0.43,0.09,0.64,0.09c0.21,0,0.39-0.05,0.52-0.15c0.17-0.13,0.36-0.37,0.56-0.73l0.34-0.61
			l-1.04-6.24h1.04l0.47,3.15c0.09,0.62,0.17,1.24,0.24,1.86l2.78-5.01h1.11L47,11.12c-0.38,0.69-0.72,1.14-1.02,1.37
			s-0.64,0.33-1.03,0.33C44.71,12.82,44.47,12.78,44.23,12.7z"/>
	</g>
	<g>
		<path d="M200.71,101.04l2.71-3.16l-1.55-3.06h1.17l0.53,1.11c0.2,0.41,0.37,0.81,0.53,1.19l1.79-2.3h1.29l-2.61,3.15l1.57,3.08
			h-1.17l-0.62-1.27c-0.13-0.27-0.28-0.6-0.45-1l-1.85,2.27H200.71z"/>
	</g>
	<g>
		<path d="M113.48,80.95l0.06-1c0.22,0.06,0.43,0.09,0.64,0.09c0.21,0,0.39-0.05,0.52-0.15c0.17-0.13,0.36-0.37,0.56-0.73l0.34-0.61
			l-1.04-6.24h1.04l0.47,3.15c0.09,0.62,0.17,1.24,0.24,1.86l2.78-5.01h1.11l-3.97,7.05c-0.38,0.69-0.72,1.14-1.02,1.37
			s-0.64,0.33-1.03,0.33C113.96,81.07,113.72,81.03,113.48,80.95z"/>
		<path d="M129.57,73.49h-5.67v-0.98h5.67V73.49z M129.57,76.1h-5.67v-0.98h5.67V76.1z"/>
		<path d="M133.14,78.54l2.71-3.16l-1.55-3.06h1.17l0.53,1.11c0.2,0.41,0.37,0.81,0.53,1.19l1.79-2.3h1.29L137,75.47l1.57,3.08
			h-1.17l-0.62-1.27c-0.13-0.27-0.28-0.6-0.45-1l-1.85,2.27H133.14z"/>
		<path d="M141.88,78.69l4.62-8.88h0.92l-4.62,8.88H141.88z"/>
		<path d="M149.66,76.28l1.05-0.14c0.12,0.6,0.33,1.03,0.62,1.29s0.65,0.4,1.06,0.4c0.5,0,0.92-0.17,1.26-0.52s0.51-0.77,0.51-1.28
			c0-0.48-0.16-0.88-0.47-1.2s-0.72-0.47-1.21-0.47c-0.2,0-0.45,0.04-0.74,0.12l0.12-0.93c0.07,0.01,0.13,0.01,0.17,0.01
			c0.45,0,0.85-0.12,1.21-0.35s0.54-0.6,0.54-1.08c0-0.39-0.13-0.71-0.39-0.96s-0.6-0.38-1.01-0.38c-0.41,0-0.75,0.13-1.03,0.39
			s-0.45,0.64-0.53,1.16l-1.05-0.19c0.13-0.71,0.42-1.25,0.88-1.64s1.03-0.58,1.71-0.58c0.47,0,0.9,0.1,1.29,0.3s0.7,0.48,0.91,0.82
			s0.31,0.72,0.31,1.11c0,0.37-0.1,0.71-0.3,1.01s-0.49,0.55-0.88,0.73c0.51,0.12,0.9,0.36,1.18,0.73s0.42,0.83,0.42,1.39
			c0,0.75-0.27,1.39-0.82,1.91s-1.24,0.78-2.07,0.78c-0.75,0-1.38-0.22-1.88-0.67S149.73,76.99,149.66,76.28z"/>
		<path d="M162.58,77.16V74.8h-2.34v-0.98h2.34v-2.34h1v2.34h2.34v0.98h-2.34v2.36H162.58z"/>
		<path d="M173.39,78.54v-2.06h-3.73v-0.97l3.92-5.57h0.86v5.57h1.16v0.97h-1.16v2.06H173.39z M173.39,75.52v-3.87l-2.69,3.87
			H173.39z"/>
	</g>
</g>
<g>
	<g>
	</g>
</g>
</svg>
